<?xml version="1.0" encoding="utf-8"?>
<!-- Generator: Adobe Illustrator 27.5.0, SVG Export Plug-In . SVG Version: 6.00 Build 0)  -->
<svg version="1.1" xmlns="http://www.w3.org/2000/svg" xmlns:xlink="http://www.w3.org/1999/xlink" x="0px" y="0px"
	 viewBox="0 0 750 500" style="enable-background:new 0 0 750 500;" xml:space="preserve">
<g id="BACKGROUND">
	<rect style="fill:#2F3A59;" width="750" height="500"/>
</g>
<g id="OBJECTS">
	<g>
		<defs>
			<rect id="SVGID_1_" width="750" height="500"/>
		</defs>
		<clipPath id="SVGID_00000008858228443089084880000008565666140830837166_">
			<use xlink:href="#SVGID_1_"  style="overflow:visible;"/>
		</clipPath>
		<g style="clip-path:url(#SVGID_00000008858228443089084880000008565666140830837166_);">
			<path style="fill:none;stroke:#FC8F2D;stroke-width:3;stroke-miterlimit:10;" d="M309.054-19.186
				c-14.875,7.804-22.983,24.693-25.559,41.291c-2.577,16.599-0.635,33.523-0.758,50.32c-0.109,14.908-1.857,29.803-5.203,44.33
				c-1.413,6.134-3.152,12.302-6.489,17.639c-7.414,11.857-21.449,17.764-35.029,21.102c-13.58,3.338-27.827,4.915-40.286,11.266
				c-16.705,8.515-28.196,24.616-37.065,41.136s-15.874,34.172-26.97,49.287c-11.096,15.115-27.458,27.815-46.185,28.748
				c-17.411,0.868-33.527-8.337-50.362-12.859c-23.454-6.3-49.294-3.197-70.59,8.477"/>
			<path style="fill:none;stroke:#FC8F2D;stroke-width:3;stroke-miterlimit:10;" d="M360.066,223.439
				c-39.788,34.314-50.87,95.351-94.553,124.545c-16.675,11.144-37.171,16.837-51.166,31.203
				c-14.777,15.169-19.705,38.309-15.451,59.054c4.254,20.746,16.8,39.134,32.472,53.377
				c28.502,25.903,69.885,39.064,106.897,28.415c28.665-8.248,51.816-29.219,71.976-51.202
				c20.16-21.984,38.774-45.916,63.153-63.102c31.503-22.208,70.328-31.527,103.486-51.179
				c10.066-5.966,19.912-13.246,25.373-23.594c5.371-10.178,5.902-22.189,5.321-33.683c-0.751-14.85-3.544-30.464-13.264-41.716
				c-10.07-11.656-25.68-16.562-40.448-20.94c-20.42-6.053-41.455-11.166-61.463-18.47c-11.906-4.346-22.636-11.074-34.969-14.281
				C423.027,192.917,387.561,201.443,360.066,223.439z"/>
			<path style="fill:none;stroke:#FC8F2D;stroke-width:3;stroke-miterlimit:10;" d="M562.865-36.583
				c-28.363,14.785-46.315,48.768-49.343,79.775c-3.713,38.024,18.47,64.984,54.471,75.36c25.412,7.323,54.801,2.349,78.534,15.527
				c29.522,16.391,19.66,54.82,28.717,81.792c11.857,35.314,35.605,65.832,39.291,103.792c3.112,32.054-5.305,65.151-23.405,91.794
				c-18.141,26.706-46.409,46.885-56.767,78.539c-5.075,15.51-5.031,32.649,0.124,48.132"/>
			<path style="fill:none;stroke:#FC8F2D;stroke-width:3;stroke-miterlimit:10;" d="M412.293-21.926
				c-39.8,52.663-31.396,129.46-67.631,184.637c-19.3,29.389-49.434,49.714-79.514,67.918c-23.546,14.25-48.346,28.397-64.219,50.88
				c-12.135,17.19-18.027,37.863-24.784,57.79c-10.947,32.283-25.955,65.268-53.823,84.899
				c-31.975,22.524-73.879,22.931-111.787,32.559c-10.185,2.587-21.174,6.678-26.057,15.983"/>
			<path style="fill:none;stroke:#FC8F2D;stroke-width:3;stroke-miterlimit:10;" d="M437.85,528.74
				c23.886-11.057,38.401-35.23,51.916-57.816c13.515-22.586,29.174-46.38,53.82-55.618c8.491-3.183,18.551-4.251,26.239,0.558
				c4.22,2.64,7.309,6.822,9.375,11.351c7.432,16.299,2.104,35.327-3.847,52.224c-5.95,16.897-12.517,35.145-7.247,52.266
				c0.817,2.654,2.318,5.575,5.046,6.095"/>
			<path style="fill:none;stroke:#FC8F2D;stroke-width:3;stroke-miterlimit:10;" d="M688.416-23.848
				c-7.845,30.714,4.512,64.465,27.115,86.691c22.603,22.226,54.087,33.831,85.624,37.043"/>
			<path style="fill:none;stroke:#FC8F2D;stroke-width:3;stroke-miterlimit:10;" d="M166.558-36.084
				c-28.581,15.587-42.986,48.62-49.725,80.47c-6.739,31.849-7.968,65.118-19.76,95.462c-12.334,31.739-35.414,58.082-59.917,81.727
				c-19.087,18.418-42.21,36.712-68.7,35.367"/>
			<g>
				<path style="fill:none;stroke:#FC8F2D;stroke-miterlimit:10;" d="M137.928-33.616c-2.535,0.533-4.265,2.819-5.709,4.971
					C107.428,8.299,97.07,52.779,87.276,96.179c-3.46,15.334-6.928,30.734-12.573,45.405
					c-16.866,43.829-53.845,79.447-98.275,94.658"/>
				<path style="fill:none;stroke:#FC8F2D;stroke-miterlimit:10;" d="M116.989-35.258c-2.386,0.53-4.102,2.521-5.577,4.406
					c-4.288,5.48-8.213,11.191-11.742,17.225C94.921-5.506,90.91,3.275,88.059,12.282c-1.138,3.598-2.095,7.227-3.257,10.866
					c-2.208,6.921-5.002,13.426-7.454,20.04c-4.822,12.967-8.61,26.76-11.943,40.637c-1.956,8.158-3.782,16.394-5.831,24.503
					c-1.573,6.232-3.291,12.408-5.336,18.47c-5.174,15.339-12.513,29.758-22.023,42.708c-16.355,22.271-39.173,40.059-65.261,49.967
					"/>
				<path style="fill:none;stroke:#FC8F2D;stroke-miterlimit:10;" d="M96.051-36.9c-2.236,0.526-3.938,2.222-5.445,3.841
					c-4.378,4.704-8.444,9.654-12.065,15.077c-4.872,7.298-8.896,15.599-11.062,24.138c-0.865,3.412-1.441,6.853-2.489,10.287
					c-1.995,6.536-5.39,12.141-8.26,17.908c-5.656,11.316-9.85,24.073-13.197,37.122c-1.953,7.638-3.646,15.412-5.387,23.054
					c-1.338,5.886-2.735,11.731-4.374,17.486c-4.147,14.563-9.905,28.397-17.914,41.008c-13.774,21.689-34.295,39.487-58.378,49.683
					"/>
				<path style="fill:none;stroke:#FC8F2D;stroke-miterlimit:10;" d="M75.113-38.542c-2.087,0.523-3.775,1.924-5.313,3.276
					c-4.468,3.929-8.675,8.117-12.387,12.929c-4.995,6.474-9.031,14.296-10.513,22.367c-0.592,3.227-0.786,6.479-1.722,9.707
					c-1.781,6.151-5.778,10.856-9.065,15.776c-6.49,9.666-11.089,21.386-14.45,33.606c-1.951,7.118-3.51,14.431-4.944,21.606
					c-1.104,5.539-2.178,11.054-3.411,16.502c-3.12,13.786-7.296,27.035-13.805,39.307c-11.194,21.107-29.418,38.915-51.495,49.4"/>
				<path style="fill:none;stroke:#FC8F2D;stroke-miterlimit:10;" d="M54.174-40.184c-1.937,0.519-3.611,1.625-5.182,2.711
					c-4.558,3.153-8.906,6.581-12.71,10.781c-5.117,5.651-9.166,12.992-9.963,20.595c-0.318,3.041-0.132,6.105-0.955,9.128
					c-1.568,5.766-6.167,9.571-9.871,13.644C8.17,24.689,3.166,35.373-0.209,46.765c-1.948,6.599-3.373,13.449-4.5,20.158
					c-0.869,5.193-1.622,10.376-2.449,15.518c-2.092,13.01-4.688,25.674-9.697,37.607c-8.614,20.525-24.541,38.343-44.612,49.117"/>
				<path style="fill:none;stroke:#FC8F2D;stroke-miterlimit:10;" d="M33.236-41.826c-1.787,0.515-3.448,1.327-5.05,2.146
					c-4.648,2.378-9.137,5.044-13.032,8.632C9.914-26.221,5.853-19.36,5.74-12.224C5.695-9.369,6.263-6.493,5.553-3.676
					C4.198,1.705-1.002,4.61-5.123,7.836c-8.158,6.364-13.568,16.012-16.957,26.576c-1.946,6.079-3.237,12.467-4.057,18.71
					c-0.634,4.846-1.065,9.699-1.486,14.534c-1.065,12.234-2.08,24.312-5.588,35.907c-6.034,19.943-19.664,37.77-37.729,48.834"/>
				<path style="fill:none;stroke:#FC8F2D;stroke-miterlimit:10;" d="M12.298-43.468c-6.387,1.997-12.911,4.062-18.273,8.065
					c-5.362,4.003-9.436,10.385-8.864,17.053c0.229,2.67,1.177,5.357,0.58,7.969c-1.141,4.996-6.943,7.001-11.482,9.38
					c-14.128,7.405-20.414,24.433-21.824,40.321c-1.411,15.888,0.799,32.053-2.003,47.756
					c-3.454,19.361-14.787,37.198-30.847,48.551"/>
			</g>
			<path style="fill:none;stroke:#FC8F2D;stroke-miterlimit:10;" d="M165.544-10.803c-19.917,12.368-30.07,35.939-34.556,58.951
				c-4.486,23.012-4.518,46.796-10.168,69.55c-3.977,16.017-10.728,31.34-19.862,45.085c-14.901,22.422-36.002,40.581-48.425,64.465
				c-5.38,10.343-8.694,23.824-1.514,33.009c7.646,9.783,22.838,9.04,34.407,4.529c27.474-10.713,46.52-36.035,60.283-62.114
				c8.541-16.185,16.287-33.908,31.253-44.44c23.266-16.374,59.054-11.706,77.087-33.711c11.487-14.017,11.297-33.845,12.1-51.95
				c0.819-18.461,3.255-36.851,7.272-54.889c2.585-11.606,5.876-23.196,11.717-33.553"/>
			<path style="fill:none;stroke:#FC8F2D;stroke-miterlimit:10;" d="M90.6,196.806c-6.747,6.728-14.19,12.803-20.195,20.2
				c-6.005,7.398-10.577,16.502-10.253,26.024c0.076,2.247,0.451,4.556,1.648,6.458c3.357,5.332,11.247,5.121,17.206,3.073
				c16.214-5.572,28.217-19.414,37.16-34.042c8.401-13.742,14.836-28.624,24.002-41.908c5.806-8.416,14.303-17.057,2.007-23.998
				c-9.613-5.427-18.499-1.929-24.163,6.553C109.189,172.381,102.02,185.42,90.6,196.806z"/>
			<g>
				<path style="fill:none;stroke:#FC8F2D;stroke-miterlimit:10;" d="M148.023,37.176c-6.813,18.25-8.97,37.941-9.129,57.421
					c-0.097,11.863,1.395,25.439,11.034,32.355c5.292,3.797,12.066,4.761,18.563,5.211c19.138,1.326,38.513-0.848,56.881-6.383
					c4.669-1.407,9.452-3.139,12.859-6.627c4.863-4.978,5.94-12.437,6.577-19.368c1.972-21.445,2.149-43.274,8.045-63.986
					c3.009-10.571,7.509-20.871,8.264-31.836c0.383-5.559-0.386-11.576-4.068-15.758c-3.708-4.211-9.597-5.717-15.176-6.322
					c-18.176-1.97-43.147,2.066-59.613,10.521C165.877,0.818,154.222,20.573,148.023,37.176z"/>
				<path style="fill:none;stroke:#FC8F2D;stroke-miterlimit:10;" d="M244.253,1.146c-3.282-2.877-7.788-4.092-12.25-4.37
					c-14.504-0.928-33.991,3.116-46.921,10.545c-12.868,7.396-21.977,23.382-26.816,36.655c-5.161,14.155-6.861,29.38-6.944,44.45
					c-0.051,9.177,1.198,19.532,8.445,25.085c4.154,3.183,9.437,4.33,14.63,4.933c4.025,0.469,8.106,0.695,12.212,0.646
					c11.506-0.136,22.866-2.442,33.532-6.304c3.671-1.32,7.383-2.918,10.053-5.807c3.727-4.033,4.634-9.898,5.186-15.387
					c1.708-16.985,1.83-34.336,6.937-50.587c2.824-8.986,7.011-18.614,6.936-27.705C249.214,8.736,247.849,4.298,244.253,1.146z"/>
				<path style="fill:none;stroke:#FC8F2D;stroke-miterlimit:10;" d="M231.456,14.086c-2.708-1.604-5.979-2.461-9.325-2.419
					c-10.832,0.136-24.836,4.166-34.229,10.569c-9.351,6.379-15.917,18.593-19.395,28.539c-3.516,10.056-4.753,20.82-4.76,31.478
					c-0.004,6.49,0.991,13.655,5.857,17.815c3.019,2.581,6.808,3.898,10.696,4.655c3.016,0.589,6.129,0.936,9.294,0.971
					c8.879,0.1,17.508-2.276,25.311-5.902c2.67-1.241,5.315-2.694,7.247-4.988c2.595-3.081,3.329-7.359,3.795-11.407
					c1.444-12.526,1.587-25.386,5.829-37.189c2.661-7.403,6.525-16.349,5.608-23.574C236.934,19.069,235.105,16.247,231.456,14.086z
					"/>
				<path style="fill:none;stroke:#FC8F2D;stroke-miterlimit:10;" d="M218.659,27.025c-1.826-0.85-4.168-0.835-6.4-0.467
					c-7.157,1.181-15.68,5.216-21.536,10.593c-5.834,5.362-9.869,13.797-11.974,20.423c-1.889,5.949-2.644,12.259-2.575,18.506
					c0.042,3.803,0.746,7.851,3.269,10.546c1.881,2.009,4.179,3.467,6.762,4.377c2.007,0.71,4.151,1.176,6.378,1.295
					c6.253,0.337,12.153-2.091,17.09-5.501c1.671-1.154,3.253-2.461,4.441-4.168c1.473-2.117,2.023-4.82,2.404-7.426
					c1.18-8.066,1.476-16.402,4.721-23.791c2.553-5.812,6.064-14.08,4.28-19.442C224.667,29.404,222.695,27.369,218.659,27.025z"/>
				<path style="fill:none;stroke:#FC8F2D;stroke-miterlimit:10;" d="M188.992,64.374c-0.554,2.922-0.711,6.01,0.291,8.81
					c1.002,2.8,3.352,5.254,6.289,5.718c4.824,0.763,8.878-3.843,10.504-8.449c1.626-4.605,1.961-9.745,4.626-13.838
					c3.886-5.969,8.438-19.64-4.839-16.65C197.16,41.925,190.458,56.636,188.992,64.374z"/>
			</g>
			<path style="fill:none;stroke:#FC8F2D;stroke-miterlimit:10;" d="M-21.737,329.79c31.123,13.984,67.365-1.206,101.315,2.198
				c9.336,0.936,19.469,3.972,24.32,12.003c6.168,10.211,1.056,23.448-5.497,33.416c-3.483,5.298-7.463,10.435-12.747,13.94
				c-6.421,4.26-14.223,5.775-21.797,7.198c-23.598,4.436-47.196,8.873-70.794,13.309c-9.007,1.693-18.622,3.702-25.008,10.275"/>
			<path style="fill:none;stroke:#FC8F2D;stroke-miterlimit:10;" d="M-11.811,348.367c24.971-0.33,49.943-0.659,74.914-0.989
				c6.327-0.083,13.361,0.097,17.926,4.478c5.956,5.715,4.426,16.231-1.137,22.329c-5.563,6.099-13.863,8.794-21.852,10.87
				c-10.297,2.676-20.78,4.739-31.389,5.532c-13.311,0.996-27.617,0.231-38.873,7.407"/>
			<path style="fill:none;stroke:#FC8F2D;stroke-miterlimit:10;" d="M-11.839,360.602c18.014,1.628,36.307-0.899,54.178,1.887
				c2.259,0.352,4.579,0.819,6.456,2.125c1.876,1.306,3.201,3.663,2.639,5.878c-0.792,3.126-4.551,4.302-7.736,4.803
				c-18.731,2.944-38.226,0.916-56.438,6.191"/>
			<path style="fill:none;stroke:#FC8F2D;stroke-miterlimit:10;" d="M-32.101,293.825c16.487-6.883,35.244-5.255,52.768-1.777
				c17.524,3.479,34.913,8.708,52.779,8.685c30.223-0.04,59.943-16.342,76.218-41.808c9.739-15.239,14.877-33.315,26.309-47.329
				c14.924-18.297,38.243-27.041,60.169-35.802s44.912-19.455,57.112-39.67c8.415-13.943,10.554-30.645,12.926-46.757
				c2.713-18.429,5.965-36.779,9.75-55.018c3.901-18.798,9.889-39.594,26.629-48.993"/>
			<path style="fill:none;stroke:#FC8F2D;stroke-miterlimit:10;" d="M-25.512,311.142c42.508,5.708,85.705,6.268,128.346,1.662
				c10.356-1.118,20.94-2.622,30.111-7.56c12.454-6.706,20.832-18.894,28.725-30.632c6.589-9.798,13.177-19.596,19.765-29.394
				c7.58-11.272,15.334-22.735,25.984-31.166c13.975-11.063,31.709-15.971,47.594-24.056c22.55-11.478,41.589-29.744,53.991-51.799
				c26.498-47.121,22.844-109.298,58.532-149.904"/>
			<path style="fill:none;stroke:#FC8F2D;stroke-miterlimit:10;" d="M390.291-12.863c-24.243,21.855-24.703,59.16-33.508,88.359
				c-9.811,32.536-23.933,65.246-45.043,92.562c-22.574,29.212-53.075,40.891-82.854,60.234
				c-31.202,20.267-53.42,50.61-70.988,82.881c-16.715,30.705-26.32,74.054-55.807,94.861
				c-38.813,27.387-94.566,16.641-135.172,41.291"/>
			<path style="fill:none;stroke:#FC8F2D;stroke-miterlimit:10;" d="M-12.238,486.712c17.941-16.428,45.169-15.006,69.19-18.848
				c20.227-3.235,39.477-10.799,58.427-18.578c9.011-3.699,18.294-7.521,28.035-7.513c20.087,0.016,36.307,15.898,48.899,31.548
				c12.592,15.65,25.379,33.206,44.598,39.046"/>
			<path style="fill:none;stroke:#FC8F2D;stroke-miterlimit:10;" d="M-11.935,505.008c12.786-14.498,32.967-19.979,52.198-21.948
				c19.23-1.969,38.914-1.195,57.537-6.379c10.688-2.975,20.936-7.893,31.976-8.988c15.213-1.509,30.405,4.524,42.757,13.532
				c12.352,9.009,22.304,20.848,32.125,32.564"/>
			<path style="fill:none;stroke:#FC8F2D;stroke-miterlimit:10;" d="M22.727,506.912c7.337-7.822,18.833-9.738,29.455-11.219
				c17.488-2.438,34.976-4.875,52.463-7.313c6.676-0.931,13.434-1.863,20.136-1.142c17.513,1.884,31.711,14.494,44.61,26.489"/>
			<path style="fill:none;stroke:#FC8F2D;stroke-miterlimit:10;" d="M164.567,404.444c-2.014,2.743-4.054,5.535-5.209,8.736
				c-1.155,3.201-1.323,6.925,0.35,9.889c1.062,1.882,2.776,3.317,4.609,4.462c4.854,3.034,12.132,3.816,15.618-0.724
				c2.62-3.412,1.949-8.187,1.856-12.489c-0.172-7.985,12.514-27.794,5.884-32.188C179.622,376.793,168.457,399.144,164.567,404.444
				z"/>
			<path style="fill:none;stroke:#FC8F2D;stroke-miterlimit:10;" d="M259.982,260.609c-14.135,8.415-28.45,16.972-39.898,28.785
				c-9.199,9.492-16.348,20.96-20.822,33.398c-3.086,8.581-4.865,18.222-1.547,26.716c0.706,1.806,1.711,3.611,3.376,4.604
				c1.932,1.151,4.349,0.987,6.578,0.692c18.837-2.493,36.359-11.861,50.491-24.563c14.132-12.702,25.067-28.623,33.964-45.412
				c4.381-8.267,21.178-36.182,10.417-43.755C293.197,234.498,268.19,255.722,259.982,260.609z"/>
			<path style="fill:none;stroke:#FC8F2D;stroke-miterlimit:10;" d="M232.839,312.406c-1.726,1.906-3.511,3.932-4.089,6.438
				c-0.577,2.506,0.543,5.602,3.017,6.302c2.557,0.724,5.007-1.283,6.912-3.136c3.495-3.402,6.99-6.803,10.485-10.205
				c3.35-3.26,19.891-19.689,6.925-21.556C249.245,289.263,237.167,307.625,232.839,312.406z"/>
			<g>
				<path style="fill:none;stroke:#FC8F2D;stroke-miterlimit:10;" d="M393.519,72.955c-1.711,16.883-4.01,34.122-9.699,50.192
					c-6.297,17.786-23.661,33.657-26.36,52.408c-1.989,13.818,13.163,15.72,23.461,14.885c28.342-2.296,52.227-15.625,70.66-34.839
					c18.433-19.214,31.414-44.311,37.948-70.143c7.242-28.629,10.592-58.418,21.719-85.772c1.303-3.202,2.734-6.481,2.701-9.938
					c-0.082-8.508-8.811-14.38-17.083-16.369c-20.135-4.841-54.957,3.903-71.005,18.27c-17.564,15.724-25.642,40.642-29.869,63.135
					C394.861,60.802,394.135,66.871,393.519,72.955z"/>
				<path style="fill:none;stroke:#FC8F2D;stroke-miterlimit:10;" d="M433.425,4.243c-8.075,7.432-13.583,17.667-17.482,28.542
					c-2.525,7.039-4.354,14.358-5.729,21.398c-0.929,4.753-1.576,9.529-2.107,14.282c-1.378,12.349-3.067,24.845-6.945,36.398
					c-1.595,4.753-4.129,9.282-6.792,13.731c-4.765,7.958-9.832,15.998-10.573,24.509c-0.84,9.646,9.774,10.983,17.202,10.267
					c5.787-0.548,11.312-1.81,16.472-3.67c12.887-4.633,23.866-12.657,32.642-22.916c9.352-10.933,16.511-24.206,21.914-38.005
					c2.096-5.353,3.9-10.808,5.407-16.286c2.389-8.691,4.426-17.475,6.735-26.157c3.524-13.25,7.968-26.457,10.76-38.052
					c0.541-2.248,1.106-4.477,0.804-6.866c-0.722-5.698-6.572-9.657-12.418-10.923C468.922-12.62,444.812-6.236,433.425,4.243z"/>
				<path style="fill:none;stroke:#FC8F2D;stroke-miterlimit:10;" d="M440.99,16.837c-5.544,5.391-9.425,13.013-12.295,21.134
					c-1.81,5.118-3.186,10.452-4.259,15.611c-0.727,3.49-1.291,6.973-1.74,10.395c-1.027,7.816-2.111,15.574-4.19,22.605
					c-0.911,3.08-2.256,5.962-3.634,8.7c-2.541,5.049-4.997,10.3-4.736,15.372c0.28,5.452,6.383,6.237,10.943,5.649
					c3.477-0.448,6.793-1.408,9.767-2.79c7.407-3.424,13.35-8.852,17.8-15.542c5.396-8.112,9.291-17.67,12.847-27.243
					c1.38-3.714,2.659-7.462,3.846-11.198c1.878-5.917,3.696-11.835,5.893-17.595c3.481-9.123,8.519-17.966,7.377-25.051
					c-0.201-1.245-0.484-2.395-1.093-3.794c-1.214-2.788-4.335-4.93-7.753-5.477C461.11,6.228,447.739,10.274,440.99,16.837z"/>
				<path style="fill:none;stroke:#FC8F2D;stroke-miterlimit:10;" d="M435.371,71.969c-0.262,2.166-0.375,4.629,1.101,6.235
					c1.986,2.161,5.82,1.334,7.746-0.88c1.926-2.214,2.464-5.276,2.958-8.168c0.952-5.566,2.07-11.134,3.781-16.48
					c1.711-5.345,4.014-10.468,7.336-15.142c3.978-5.598,11.749-11.082,1.004-12.772c-4.264-0.671-7.807,1.244-10.744,4.669
					c-2.937,3.424-5.267,8.359-7.107,13.727c-1.84,5.368-3.189,11.17-4.163,16.331C436.31,64.649,435.711,69.168,435.371,71.969z"/>
			</g>
			<path style="fill:none;stroke:#FC8F2D;stroke-miterlimit:10;" d="M323.868,205.716c-2.775,2.584-5.398,5.423-7.089,8.817
				c-1.691,3.394-2.372,7.426-1.173,11.023c1.199,3.597,4.521,6.58,8.31,6.731c4.049,0.162,7.533-2.675,10.532-5.4
				c6.471-5.881,13.063-12.663,14.358-21.31C351.966,184.467,330.733,199.324,323.868,205.716z"/>
			<g>
				<path style="fill:none;stroke:#FC8F2D;stroke-miterlimit:10;" d="M365.232,240.157c-34.954,30.145-44.69,83.767-83.065,109.414
					c-14.649,9.79-32.655,14.792-44.95,27.413c-12.982,13.327-17.311,33.655-13.574,51.88c3.737,18.225,14.759,34.38,28.527,46.893
					c25.039,22.756,61.394,34.318,93.91,24.963c25.182-7.246,45.521-25.669,63.232-44.982
					c17.711-19.313,34.063-40.337,55.481-55.435c27.676-19.51,61.784-27.697,90.914-44.961c8.843-5.241,17.493-11.637,22.291-20.728
					c4.719-8.941,5.185-19.494,4.674-29.591c-0.66-13.046-3.113-26.763-11.653-36.648c-8.846-10.24-22.56-14.55-35.534-18.396
					c-17.939-5.318-36.418-9.809-53.996-16.226c-10.46-3.818-19.886-9.728-30.72-12.546
					C420.545,213.344,389.387,220.833,365.232,240.157z"/>
				<path style="fill:none;stroke:#FC8F2D;stroke-miterlimit:10;" d="M371.812,261.448c-29.252,24.3-36.819,69.015-68.437,90.145
					c-12.069,8.066-26.904,12.187-37.034,22.585c-10.696,10.98-14.263,27.728-11.183,42.743
					c3.079,15.016,12.16,28.325,23.503,38.634c20.63,18.749,50.582,28.275,77.372,20.566c20.747-5.97,37.505-21.148,52.096-37.06
					c14.591-15.912,28.064-33.234,45.71-45.673c22.802-16.074,50.903-22.819,74.903-37.043c7.285-4.318,14.413-9.587,18.365-17.077
					c3.888-7.367,4.272-16.061,3.851-24.38c-0.544-10.748-2.565-22.05-9.601-30.194c-7.288-8.437-18.587-11.987-29.276-15.156
					c-14.78-4.382-30.005-8.082-44.487-13.368c-8.618-3.146-16.384-8.015-25.31-10.337
					C417.384,239.356,391.416,245.162,371.812,261.448z"/>
				<path style="fill:none;stroke:#FC8F2D;stroke-miterlimit:10;" d="M378.392,282.738c-22.999,19.106-28.949,54.263-53.808,70.876
					c-9.489,6.342-21.154,9.582-29.118,17.757c-8.409,8.633-11.214,21.801-8.793,33.607c2.421,11.806,9.56,22.271,18.479,30.376
					c16.22,14.741,39.77,22.231,60.833,16.17c16.313-4.694,29.488-16.628,40.96-29.138c11.473-12.511,22.066-26.13,35.939-35.91
					c17.928-12.639,40.022-17.941,58.892-29.125c5.728-3.395,11.332-7.538,14.439-13.427c3.057-5.792,3.359-12.628,3.028-19.168
					c-0.427-8.451-2.017-17.337-7.548-23.74c-5.73-6.634-14.614-9.425-23.018-11.917c-11.621-3.445-23.591-6.354-34.978-10.511
					c-6.775-2.473-12.882-6.302-19.9-8.127C414.222,265.368,393.805,269.933,378.392,282.738z"/>
				<path style="fill:none;stroke:#FC8F2D;stroke-miterlimit:10;" d="M384.971,304.028c-16.746,13.912-21.079,39.511-39.18,51.607
					c-6.91,4.618-15.403,6.977-21.202,12.93c-6.123,6.286-8.165,15.874-6.402,24.47c1.763,8.596,6.961,16.216,13.455,22.118
					c11.81,10.734,28.958,16.187,44.295,11.774c11.878-3.418,21.471-12.107,29.825-21.217c8.354-9.109,16.067-19.026,26.169-26.147
					c13.054-9.203,29.142-13.064,42.882-21.207c4.171-2.472,8.251-5.489,10.514-9.777c2.226-4.217,2.446-9.195,2.205-13.957
					c-0.311-6.153-1.469-12.623-5.496-17.286c-4.172-4.83-10.641-6.863-16.76-8.677c-8.461-2.508-17.178-4.627-25.469-7.653
					c-4.934-1.801-9.379-4.589-14.49-5.918C411.061,291.381,396.194,294.705,384.971,304.028z"/>
				<path style="fill:none;stroke:#FC8F2D;stroke-miterlimit:10;" d="M391.551,325.318c-10.494,8.717-13.209,24.758-24.551,32.339
					c-4.33,2.894-9.652,4.372-13.285,8.102c-3.837,3.939-5.117,9.947-4.012,15.334c1.105,5.387,4.362,10.161,8.431,13.86
					c7.401,6.726,18.146,10.143,27.757,7.378c7.443-2.142,13.454-7.587,18.689-13.295c5.234-5.708,10.068-11.922,16.398-16.385
					c8.18-5.767,18.261-8.186,26.871-13.289c2.614-1.549,5.17-3.439,6.588-6.126c1.395-2.643,1.533-5.762,1.382-8.746
					c-0.195-3.856-0.92-7.91-3.444-10.832c-2.615-3.027-6.668-4.3-10.503-5.437c-5.302-1.572-10.764-2.899-15.959-4.796
					c-3.092-1.129-5.878-2.875-9.08-3.708C407.899,317.393,398.583,319.476,391.551,325.318z"/>
				<path style="fill:none;stroke:#FC8F2D;stroke-miterlimit:10;" d="M398.13,346.608c-4.175,3.601-5.338,10.006-9.923,13.07
					c-1.75,1.169-3.901,1.767-5.37,3.275c-1.551,1.592-2.068,4.02-1.621,6.197c0.446,2.177,1.763,4.107,3.408,5.602
					c2.991,2.718,7.334,4.1,11.218,2.982c3.008-0.866,5.438-3.066,7.553-5.373c2.116-2.307,4.069-4.819,6.628-6.622
					c3.306-2.331,7.38-3.309,10.86-5.371c1.056-0.626,2.09-1.39,2.663-2.476c0.564-1.068,0.619-2.329,0.558-3.535
					c-0.079-1.558-0.372-3.197-1.392-4.378c-1.057-1.223-2.695-1.738-4.245-2.197c-2.143-0.635-4.35-1.172-6.45-1.938
					c-1.249-0.456-2.375-1.162-3.67-1.499C404.738,343.405,401.016,344.3,398.13,346.608z"/>
			</g>
			<path style="fill:none;stroke:#FC8F2D;stroke-miterlimit:10;" d="M377.349,514.453c31.761-20.908,56.044-49.16,84.24-74.09
				c16.862-14.909,35.163-28.189,54.565-39.597c20.08-11.807,42.024-19.506,62.151-31.071
				c22.239-12.779,40.981-31.305,47.969-56.598c6.009-21.748,4.193-50.07-8.975-69.103c-7.07-10.22-17.859-17.409-29.344-22.155
				c-22.282-9.209-47.626-9.47-67.716-24.1c-10.806-7.869-15.413-19.311-16.739-32.225c-0.736-7.163-0.418-14.664,2.705-21.152
				c4.241-8.812,12.878-12.558,22.252-12.723c20.452-0.361,40.222,8.152,60.105,11.632c16.299,2.853,34.31,0.397,47.559,12.515
				c11.196,10.241,13.365,26.687,17.056,41.405c12.332,49.173,48.709,93.474,44.4,143.987c-3.217,37.702-28.561,69.188-50.873,99.75
				c-22.311,30.562-43.497,66.8-36.647,104.014"/>
			<path style="fill:none;stroke:#FC8F2D;stroke-miterlimit:10;" d="M419.314,519.394c37.18-27.104,58.822-69.614,94.318-98.402
				c39.181-31.777,104.556-45.125,125.161-96.179c10.057-24.92,9.882-63.06-2.677-87.222
				c-17.047-32.798-62.699-29.891-88.435-52.375c-3.807-3.326-7.325-7.25-8.887-12.059c-10.235-31.514,44.844-15.898,57.784-10.982
				c23.496,8.927,38.076,34.235,48.56,55.605c13.156,26.816,26.416,52.177,29.638,82.507c4.734,44.551-9.054,85.65-36.495,120.485
				c-8.443,10.717-17.813,20.716-25.616,31.907c-22.204,31.846-30.466,73.063-22.252,111.006"/>
			<path style="fill:none;stroke:#FC8F2D;stroke-miterlimit:10;" d="M594.835,391.982c-2.465,1.809-5.01,3.744-6.332,6.501
				c-1.872,3.906-0.882,8.522,0.237,12.706c1.009,3.773,2.146,7.626,4.538,10.713c2.392,3.087,6.341,5.273,10.168,4.497
				c3.132-0.636,5.557-3.045,7.76-5.36c14.411-15.145,28.33-31.727,35.992-51.43c1.547-3.978,9.653-25.905-0.492-22.287
				c-3.986,1.421-7.317,7.354-10.018,10.34c-3.741,4.135-7.801,7.973-12.019,11.616
				C615.203,377.453,604.908,384.591,594.835,391.982z"/>
			<path style="fill:none;stroke:#FC8F2D;stroke-miterlimit:10;" d="M481.471,508.133c7.638-10.105,14.691-20.653,21.111-31.573
				c5.978-10.169,11.454-20.726,18.944-29.839c7.49-9.112,17.365-16.83,28.931-19.147c4.008-0.803,8.583-0.799,11.69,1.857
				c1.471,1.258,2.454,2.988,3.277,4.739c4.466,9.505,4.93,20.815,1.258,30.654c-1.839,4.928-4.64,9.436-6.81,14.228
				c-4.493,9.921-6.214,21.08-4.92,31.894"/>
			<path style="fill:none;stroke:#FC8F2D;stroke-miterlimit:10;" d="M496.006,505.693c14.389-13.681,22.894-32.287,34.742-48.219
				c3.774-5.074,8.023-9.993,13.544-13.077c3.932-2.196,9.72-2.958,12.251,0.768c1.057,1.556,1.245,3.544,1.155,5.423
				c-0.398,8.266-5.385,15.474-8.836,22.995c-5.52,12.029-7.24,25.768-4.856,38.787"/>
			<path style="fill:none;stroke:#FC8F2D;stroke-miterlimit:10;" d="M516.582,509.333c3.646-5.423,6.511-11.37,8.478-17.602
				c0.794-2.517,1.509-5.197,3.355-7.083c0.454-0.464,0.987-0.878,1.611-1.055c1.532-0.434,3.15,0.732,3.785,2.192
				c0.635,1.46,0.539,3.12,0.43,4.709c-0.327,4.793-0.654,9.585-0.982,14.378c-0.109,1.596,0.208,3.746,1.798,3.932"/>
			<g>
				<path style="fill:none;stroke:#FC8F2D;stroke-miterlimit:10;" d="M566.118-14.024c-23.84,8.609-39.26,37.365-37.646,61.714
					c1.592,24.013,17.547,42.925,38.495,53.42c29.6,14.83,66.251,0.234,93.236,22.272c20.014,16.345,23.573,41.364,27.967,65.132
					c8.35,45.163,42.42,123.685,101.531,115.348"/>
				<path style="fill:none;stroke:#FC8F2D;stroke-miterlimit:10;" d="M587.9-16.037c-19.965,8.623-32.523,33.567-31.048,54.997
					c1.434,20.916,14.749,37.62,32.029,47.751c24.91,14.604,55.667,5.885,79.161,26.009c17.433,14.936,21.757,36.702,27.185,57.213
					c10.521,39.758,42.998,105.086,95.592,99.607"/>
				<path style="fill:none;stroke:#FC8F2D;stroke-miterlimit:10;" d="M609.682-18.05c-16.089,8.636-25.786,29.768-24.45,48.281
					c1.276,17.819,11.95,32.364,25.563,42.082c20.228,14.44,45.083,11.536,65.085,29.746c14.852,13.527,19.992,32.049,26.403,49.293
					c12.78,34.379,43.576,86.487,89.653,83.866"/>
				<path style="fill:none;stroke:#FC8F2D;stroke-miterlimit:10;" d="M631.464-20.063c-12.214,8.649-19.048,25.97-17.852,41.564
					c1.118,14.721,9.131,27.184,19.097,36.413c15.528,14.379,34.499,17.187,51.01,33.483c12.271,12.119,18.302,27.391,25.621,41.373
					c15.176,28.995,44.154,67.888,83.715,68.124"/>
				<path style="fill:none;stroke:#FC8F2D;stroke-miterlimit:10;" d="M653.245-22.076c-8.338,8.663-12.311,22.172-11.254,34.847
					c0.959,11.624,6.237,22.108,12.631,30.744c10.716,14.473,23.915,22.838,36.935,37.22c9.689,10.71,16.706,22.688,24.838,33.454
					c17.766,23.519,44.732,49.289,77.776,52.383"/>
				<path style="fill:none;stroke:#FC8F2D;stroke-miterlimit:10;" d="M675.027-24.089c-8.363,16.258-4.954,36.103,1.509,53.206
					c19.31,51.1,65.451,91.173,118.753,103.134"/>
			</g>
			<path style="fill:none;stroke:#FC8F2D;stroke-miterlimit:10;" d="M700.294-10.023c3.61,22.376,14.709,43.477,31.102,59.129
				c10.856,10.365,23.781,18.263,36.607,26.059"/>
			<path style="fill:none;stroke:#FC8F2D;stroke-miterlimit:10;" d="M721.069-7.496c6.881,23.415,23.319,43.868,44.706,55.625"/>
			<path style="fill:none;stroke:#FC8F2D;stroke-miterlimit:10;" d="M737.28-10.496c4.047,6.155,6.564,13.184,10.245,19.566
				c3.681,6.381,8.974,12.382,16.082,14.315"/>
			<path style="fill:none;stroke:#FC8F2D;stroke-miterlimit:10;" d="M456.472,174.133c-2.917,5.517-3.654,11.359,1.62,15.925
				c9,7.793,30.285,13.508,33.787-2.701c4.166-19.278-6.668-40.194,8.899-56.728c5.641-5.992,17.62-11.282,17.686-20.885
				c0.042-6.152-6-10.383-11.711-10.764c-9.229-0.616-11.53,7.646-14.572,14.723c-9.295,21.624-22.955,39.03-34.917,59.026
				C456.986,173.194,456.721,173.663,456.472,174.133z"/>
			<path style="fill:none;stroke:#FC8F2D;stroke-miterlimit:10;" d="M585.637,170.98c-2.556-0.883-5.321-0.926-8.023-0.816
				c-2.532,0.104-5.14,0.358-7.371,1.558s-4.009,3.565-3.805,6.091c0.248,3.074,3.127,5.183,5.806,6.71
				c4.596,2.619,27.093,13.631,31.133,6.446C606.851,184.788,589.997,172.487,585.637,170.98z"/>
			<g>
				<path style="fill:none;stroke:#FC8F2D;stroke-miterlimit:10;" d="M648.505,524.806c-11.245-34.06,22.14-70.403,46.607-89.374
					c12.426-9.635,20.374-23.721,24.335-38.821c5.568-21.225,4.368-43.37,8.814-64.782c4.585-22.08,22.988-26.916,41.507-15.64
					c5.481,3.337,10.795,6.948,15.917,10.814"/>
				<path style="fill:none;stroke:#FC8F2D;stroke-miterlimit:10;" d="M666.338,529.687c-9.435-29.066,18.055-59.898,38.543-76.797
					c11.088-9.146,18.718-21.76,23.436-34.998c6.825-19.148,8.66-39.061,13.42-59.25c4.775-20.253,18.786-25.135,35.961-20.423
					c5.582,1.531,12.329,2.702,18.679,6.045"/>
				<path style="fill:none;stroke:#FC8F2D;stroke-miterlimit:10;" d="M684.171,534.568c-7.624-24.072,13.927-49.466,30.478-64.22
					c9.742-8.684,17.112-19.801,22.536-31.174c8.145-17.08,12.935-34.753,18.026-53.719c4.946-18.428,15.979-27.447,30.416-25.207
					c5.972-1.65,13.864-1.545,21.441,1.277"/>
				<path style="fill:none;stroke:#FC8F2D;stroke-miterlimit:10;" d="M702.003,539.449c-5.813-19.078,9.735-39.128,22.414-51.642
					c8.371-8.263,15.569-17.827,21.636-27.351c9.552-14.994,17.189-30.449,22.632-48.188c5.095-16.608,12.474-27.712,24.87-29.991
					c6.218-4.143,15.398-5.791,24.204-3.492"/>
				<path style="fill:none;stroke:#FC8F2D;stroke-miterlimit:10;" d="M719.836,544.33c-4.002-14.084,5.438-28.904,14.349-39.065
					c6.938-7.911,14.089-15.811,20.737-23.527c11.061-12.84,21.417-26.153,27.237-42.656c5.219-14.796,9.769-26.893,19.325-34.775
					c7.147-5.895,16.933-10.038,26.966-8.261"/>
				<path style="fill:none;stroke:#FC8F2D;stroke-miterlimit:10;" d="M737.669,549.211c-2.192-9.09,0.959-18.802,6.284-26.488
					c5.326-7.686,12.654-13.718,19.837-19.704c12.657-10.548,25.608-21.874,31.843-37.125c5.314-12.997,5.465-28.243,13.78-39.559
					c6.71-9.131,18.467-14.284,29.728-13.03"/>
			</g>
		</g>
	</g>
</g>
</svg>
