<?xml version="1.0" encoding="utf-8"?>
<!-- Generator: Adobe Illustrator 27.5.0, SVG Export Plug-In . SVG Version: 6.00 Build 0)  -->
<svg version="1.1" xmlns="http://www.w3.org/2000/svg" xmlns:xlink="http://www.w3.org/1999/xlink" x="0px" y="0px"
	 viewBox="0 0 500 500" style="enable-background:new 0 0 500 500;" xml:space="preserve">
<g id="BACKGROUND">
	<g>
		<polyline style="fill:none;stroke:#CCCCCC;stroke-width:0.7577;stroke-miterlimit:10;" points="475.844,52.341 475.844,281.508 
			24.156,281.508 24.156,52.341 		"/>
		<ellipse style="fill:#F5F5F5;" cx="63.359" cy="315.419" rx="44.644" ry="5.216"/>
		<g>
			<g>
				<g>
					<rect x="160.266" y="197.333" style="fill:#F5F5F5;" width="32.432" height="10.333"/>
					
						<rect x="179.971" y="207.667" style="fill:#FFFFFF;stroke:#CCCCCC;stroke-width:1.6054;stroke-miterlimit:10;" width="32.432" height="10.333"/>
				</g>
				<g>
					
						<rect x="359.987" y="132.404" style="fill:#FFFFFF;stroke:#CCCCCC;stroke-width:1.6054;stroke-miterlimit:10;" width="32.432" height="10.333"/>
					
						<rect x="379.693" y="142.738" style="fill:#FFFFFF;stroke:#CCCCCC;stroke-width:1.6054;stroke-miterlimit:10;" width="32.432" height="10.333"/>
				</g>
				
					<rect x="105.442" y="86.409" style="fill:#FFFFFF;stroke:#CCCCCC;stroke-width:1.6054;stroke-miterlimit:10;" width="32.432" height="10.333"/>
				<rect x="412.203" y="91.403" style="fill:#F5F5F5;" width="32.432" height="10.333"/>
				<rect x="50.056" y="125.966" style="fill:#F5F5F5;" width="32.432" height="10.333"/>
			</g>
			<g>
				<g>
					<ellipse style="fill:#F5F5F5;" cx="436.641" cy="311.971" rx="44.644" ry="5.216"/>
					<g>
						<g>
							<path style="fill:#FFFFFF;stroke:#CCCCCC;stroke-width:1.6054;stroke-miterlimit:10;" d="M462.906,311.971h-57.798
								c-4.432,0-8.025-3.593-8.025-8.025V197.184c0-4.432,3.593-8.025,8.025-8.025h57.798c4.432,0,8.025,3.593,8.025,8.025v106.762
								C470.931,308.378,467.338,311.971,462.906,311.971z"/>
							<path style="fill:#FFFFFF;stroke:#CCCCCC;stroke-width:1.6054;stroke-miterlimit:10;" d="M420.223,238.124h-17.521v-2.943
								h17.521c0.667,0,1.208,0.541,1.208,1.208v0.527C421.432,237.583,420.891,238.124,420.223,238.124z"/>
						</g>
						<g>
							<g>
								<path style="fill:#CCCCCC;" d="M434.612,179.207c-0.448-0.097-0.756-0.555-0.682-1.058c0.693-4.739,1.374-9.48,2.089-14.216
									c0.245-1.625,0.846-10.406,3.991-9.728c2.989,0.645,0.692,7.189,0.166,8.883c-1.286,4.141-2.458,8.317-3.657,12.485
									c-0.283,0.984-0.566,1.968-0.849,2.951C435.529,179.014,435.06,179.304,434.612,179.207z"/>
								
									<line style="fill:none;stroke:#FFFFFF;stroke-width:0.2601;stroke-linecap:round;stroke-linejoin:round;stroke-miterlimit:10;" x1="434.893" y1="178.115" x2="439.596" y2="156.334"/>
							</g>
							<g>
								<path style="fill:#CCCCCC;" d="M434.346,171.298c-0.458-0.001-0.855-0.384-0.889-0.891
									c-0.317-4.779-0.645-9.557-0.94-14.338c-0.101-1.64-1.356-10.352,1.861-10.348c3.058,0.004,2.185,6.884,2.026,8.651
									c-0.389,4.319-0.658,8.647-0.956,12.974c-0.07,1.021-0.141,2.043-0.211,3.064
									C435.202,170.916,434.804,171.299,434.346,171.298z"/>
								
									<line style="fill:none;stroke:#FFFFFF;stroke-width:0.2601;stroke-linecap:round;stroke-linejoin:round;stroke-miterlimit:10;" x1="434.392" y1="170.171" x2="434.421" y2="147.889"/>
							</g>
							<g>
								<path style="fill:#CCCCCC;" d="M433.403,175.654c0.448-0.097,0.756-0.555,0.682-1.058c-0.693-4.739-1.374-9.48-2.089-14.216
									c-0.245-1.625-0.846-10.406-3.991-9.728c-2.989,0.645-0.692,7.189-0.166,8.883c1.286,4.141,2.458,8.317,3.657,12.485
									c0.283,0.984,0.566,1.968,0.849,2.951C432.485,175.46,432.955,175.75,433.403,175.654z"/>
								
									<line style="fill:none;stroke:#FFFFFF;stroke-width:0.2601;stroke-linecap:round;stroke-linejoin:round;stroke-miterlimit:10;" x1="433.121" y1="174.561" x2="428.419" y2="152.781"/>
							</g>
						</g>
						<polygon style="fill:#FFFFFF;stroke:#CCCCCC;stroke-width:1.6054;stroke-miterlimit:10;" points="440.93,169.293 
							427.084,169.293 432.168,189.159 435.846,189.159 						"/>
					</g>
				</g>
				<g>
					<ellipse style="fill:#F5F5F5;" cx="262.335" cy="337.4" rx="114.644" ry="7.933"/>
					<g>
						
							<rect x="147.691" y="293.11" style="fill:#FFFFFF;stroke:#CCCCCC;stroke-width:2;stroke-miterlimit:10;" width="229.288" height="18.074"/>
						<path style="fill:#FFFFFF;stroke:#CCCCCC;stroke-width:2;stroke-miterlimit:10;" d="M134.247,246.206h13.443v64.977h-3.155
							c-5.682,0-10.288-4.606-10.288-10.288V246.206z"/>
						<path style="fill:#FFFFFF;stroke:#CCCCCC;stroke-width:2;stroke-miterlimit:10;" d="M390.422,246.206h-13.444v64.977h3.156
							c5.682,0,10.288-4.606,10.288-10.288V246.206z"/>
						<path style="fill:#FFFFFF;stroke:#CCCCCC;stroke-width:2;stroke-miterlimit:10;" d="M262.335,293.11H147.691v-58.402
							c0-3.742,3.034-6.775,6.775-6.775h101.093c3.742,0,6.775,3.033,6.775,6.775V293.11z"/>
						<path style="fill:#FFFFFF;stroke:#CCCCCC;stroke-width:2;stroke-miterlimit:10;" d="M376.978,293.11H262.335v-58.402
							c0-3.742,3.034-6.775,6.775-6.775h101.093c3.742,0,6.775,3.033,6.775,6.775V293.11z"/>
						<g>
							<g>
								<path style="fill:#FFFFFF;stroke:#CCCCCC;stroke-width:2;stroke-miterlimit:10;" d="M195.539,252.321
									c0,1.005-0.815,1.82-1.82,1.82c-1.005,0-1.82-0.815-1.82-1.82c0-1.005,0.815-1.82,1.82-1.82
									C194.724,250.501,195.539,251.316,195.539,252.321z"/>
								<circle style="fill:#FFFFFF;stroke:#CCCCCC;stroke-width:2;stroke-miterlimit:10;" cx="223.686" cy="252.321" r="1.821"/>
							</g>
							<g>
								<path style="fill:#FFFFFF;stroke:#CCCCCC;stroke-width:2;stroke-miterlimit:10;" d="M195.539,270.246
									c0,1.005-0.815,1.82-1.82,1.82c-1.005,0-1.82-0.815-1.82-1.82c0-1.005,0.815-1.82,1.82-1.82
									C194.724,268.426,195.539,269.241,195.539,270.246z"/>
								<path style="fill:#FFFFFF;stroke:#CCCCCC;stroke-width:2;stroke-miterlimit:10;" d="M225.507,270.246
									c0,1.005-0.815,1.82-1.82,1.82c-1.005,0-1.82-0.815-1.82-1.82c0-1.005,0.815-1.82,1.82-1.82
									C224.692,268.426,225.507,269.241,225.507,270.246z"/>
							</g>
						</g>
						<g>
							<g>
								<circle style="fill:#FFFFFF;stroke:#CCCCCC;stroke-width:2;stroke-miterlimit:10;" cx="304.673" cy="252.321" r="1.821"/>
								<circle style="fill:#FFFFFF;stroke:#CCCCCC;stroke-width:2;stroke-miterlimit:10;" cx="334.641" cy="252.321" r="1.821"/>
							</g>
							<g>
								<path style="fill:#FFFFFF;stroke:#CCCCCC;stroke-width:2;stroke-miterlimit:10;" d="M306.493,270.246
									c0,1.005-0.815,1.82-1.82,1.82s-1.821-0.815-1.821-1.82c0-1.005,0.815-1.82,1.821-1.82S306.493,269.241,306.493,270.246z"/>
								<path style="fill:#FFFFFF;stroke:#CCCCCC;stroke-width:2;stroke-miterlimit:10;" d="M336.461,270.246
									c0,1.005-0.815,1.82-1.82,1.82c-1.005,0-1.82-0.815-1.82-1.82c0-1.005,0.815-1.82,1.82-1.82
									C335.646,268.426,336.461,269.241,336.461,270.246z"/>
							</g>
						</g>
						<polygon style="fill:#FFFFFF;stroke:#CCCCCC;stroke-width:2;stroke-miterlimit:10;" points="161.521,340.685 158.694,340.685 
							157.4,311.184 162.815,311.184 						"/>
						<polygon style="fill:#FFFFFF;stroke:#CCCCCC;stroke-width:2;stroke-miterlimit:10;" points="367.312,340.685 364.485,340.685 
							363.191,311.184 368.606,311.184 						"/>
						<g>
							<polygon style="fill:#FFFFFF;stroke:#CCCCCC;stroke-width:2;stroke-miterlimit:10;" points="347.546,334.71 345.292,334.71 
								344.26,311.184 348.578,311.184 							"/>
							<polygon style="fill:#FFFFFF;stroke:#CCCCCC;stroke-width:2;stroke-miterlimit:10;" points="179.464,334.71 177.209,334.71 
								176.177,311.184 180.495,311.184 							"/>
						</g>
					</g>
				</g>
				<g>
					<rect x="151.414" y="182.476" style="fill:#F5F5F5;" width="47.845" height="3.524"/>
					<g>
						
							<rect x="152.501" y="117.008" style="fill:#FFFFFF;stroke:#CCCCCC;stroke-width:1.6054;stroke-miterlimit:10;" width="45.715" height="65.469"/>
						
							<rect x="158.786" y="124.524" style="fill:#FFFFFF;stroke:#CCCCCC;stroke-width:1.6054;stroke-miterlimit:10;" width="33.146" height="50.436"/>
						
							<line style="fill:#FFFFFF;stroke:#CCCCCC;stroke-width:1.6931;stroke-miterlimit:10;" x1="167.947" y1="163.826" x2="187.447" y2="135.192"/>
						
							<circle style="fill:#FFFFFF;stroke:#CCCCCC;stroke-width:1.6931;stroke-miterlimit:10;" cx="170.835" cy="137.758" r="6.625"/>
						<polygon style="fill:#FFFFFF;stroke:#CCCCCC;stroke-width:1.6931;stroke-miterlimit:10;" points="175.359,168.258 
							186.335,168.258 186.335,152.508 						"/>
					</g>
				</g>
				<g>
					<rect x="243.872" y="170.223" style="fill:#F5F5F5;" width="101.116" height="3.524"/>
					<g>
						
							<rect x="244.63" y="36.544" style="fill:#FFFFFF;stroke:#CCCCCC;stroke-width:1.6054;stroke-miterlimit:10;" width="99.592" height="132.956"/>
						<g>
							<polygon style="fill:#F5F5F5;" points="337.225,43.544 337.225,59.824 251.635,105.714 251.635,83.024 325.265,43.544 
															"/>
							<polygon style="fill:#F5F5F5;" points="337.225,102.134 337.225,124.824 266.955,162.504 251.635,162.504 251.635,148.024 
															"/>
						</g>
						<polygon style="fill:#FFFFFF;stroke:#CCCCCC;stroke-width:1.6054;stroke-miterlimit:10;" points="337.222,99.336 
							298.112,99.336 298.112,43.544 290.74,43.544 290.74,99.336 251.63,99.336 251.63,106.708 290.74,106.708 290.74,162.499 
							298.112,162.499 298.112,106.708 337.222,106.708 						"/>
						
							<rect x="234.948" y="60.226" transform="matrix(-1.836970e-16 1 -1 -1.836970e-16 397.4481 -191.4043)" style="fill:none;stroke:#CCCCCC;stroke-width:1.6054;stroke-miterlimit:10;" width="118.956" height="85.592"/>
					</g>
				</g>
				<g>
					<g>
						<path style="fill:#FFFFFF;stroke:#CCCCCC;stroke-width:1.6054;stroke-miterlimit:10;" d="M20.158,244.944v9.277
							c0,2.106,22.722,3.813,50.75,3.813c28.028,0,50.75-1.707,50.75-3.813v-9.277H20.158z"/>
						
							<ellipse style="fill:#FFFFFF;stroke:#CCCCCC;stroke-width:1.6054;stroke-miterlimit:10;" cx="70.908" cy="244.944" rx="50.75" ry="3.813"/>
						<g>
							<g>
								<path style="fill:#FFFFFF;stroke:#CCCCCC;stroke-width:1.6054;stroke-miterlimit:10;" d="M98.809,315.759l-3.17,0.5
									l-11.27-58.32c1.83-0.03,3.62-0.07,5.37-0.11L98.809,315.759z"/>
							</g>
							<g>
								<path style="fill:#FFFFFF;stroke:#CCCCCC;stroke-width:1.6054;stroke-miterlimit:10;" d="M43.006,315.759l3.17,0.5
									l11.27-58.32c-1.83-0.03-3.62-0.07-5.37-0.11L43.006,315.759z"/>
							</g>
						</g>
					</g>
					<g>
						<ellipse style="fill:#F5F5F5;" cx="70.969" cy="244.541" rx="21.223" ry="2.077"/>
						<g>
							<g>
								
									<rect x="52.39" y="205.167" style="fill:#FFFFFF;stroke:#CCCCCC;stroke-width:1.6054;stroke-miterlimit:10;" width="8.111" height="39.777"/>
								<g>
									
										<line style="fill:none;stroke:#CCCCCC;stroke-width:1.6054;stroke-miterlimit:10;" x1="52.39" y1="214.667" x2="60.501" y2="214.667"/>
									
										<line style="fill:none;stroke:#CCCCCC;stroke-width:1.6054;stroke-miterlimit:10;" x1="52.39" y1="219.5" x2="60.501" y2="219.5"/>
								</g>
							</g>
							<g>
								
									<rect x="60.501" y="207.667" style="fill:#FFFFFF;stroke:#CCCCCC;stroke-width:1.6054;stroke-miterlimit:10;" width="8.111" height="37.277"/>
								<g>
									
										<line style="fill:none;stroke:#CCCCCC;stroke-width:1.6054;stroke-miterlimit:10;" x1="60.501" y1="214.667" x2="68.613" y2="214.667"/>
									
										<line style="fill:none;stroke:#CCCCCC;stroke-width:1.6054;stroke-miterlimit:10;" x1="60.501" y1="219.5" x2="68.613" y2="219.5"/>
								</g>
							</g>
							<g>
								
									<rect x="74.168" y="207.667" transform="matrix(0.9512 -0.3087 0.3087 0.9512 -66.039 35.1999)" style="fill:#FFFFFF;stroke:#CCCCCC;stroke-width:1.6054;stroke-miterlimit:10;" width="8.112" height="37.277"/>
								<g>
									
										<line style="fill:none;stroke:#CCCCCC;stroke-width:1.6054;stroke-miterlimit:10;" x1="70.774" y1="216.487" x2="78.489" y2="213.983"/>
									
										<line style="fill:none;stroke:#CCCCCC;stroke-width:1.6054;stroke-miterlimit:10;" x1="72.266" y1="221.084" x2="79.981" y2="218.58"/>
								</g>
							</g>
						</g>
					</g>
				</g>
			</g>
		</g>
	</g>
</g>
<g id="OBJECTS">
	<g>
		<g>
			<path style="fill:#E86900;" d="M165.344,320.72c0,0-16.193,16.631-15.318,29.104l3.939,1.969
				C153.965,351.794,167.532,337.133,165.344,320.72z"/>
			<path style="fill:#005FC5;" d="M225.303,155.723c0,0,41.359-7.221,46.939,26.916c5.58,34.138,0,76.809,0,76.809h-30.527
				L225.303,155.723z"/>
			<path style="fill:#0053AB;" d="M250.013,205.354c-6.633,1.573-11.696,4.436-15.581,8.059l7.284,46.036h21.12
				C267.762,228.407,250.013,205.354,250.013,205.354z"/>
			<g>
				<path style="fill:#FF8585;" d="M211.189,274.876c0,0-9.191,3.611-12.145,18.382c-2.954,14.771-7.878,55.473-7.878,55.473
					l-33.481-30.199c-1.645-2.063-3.942-7.527-4.376-8.896c-1.076-3.396-1.604-5.46-5.183-8.34
					c-3.579-2.88-12.482-14.251-13.595-16.331c0,0-2.263,2.425-0.183,6.581c2.08,4.156,6.166,9.831,6.166,9.831
					s-20.621-16.038-26.537-19.325c-0.576-0.32-2.933,0.211-1.523,2.153c1.41,1.942,16.955,14.835,16.955,14.835l-0.541,0.823
					l-18.977-12.949c0,0-2.153-1.523-3.355-0.386c-1.202,1.137,0.65,2.945,1.941,3.859c1.292,0.914,16.951,13.584,16.951,13.584
					l-0.654,0.903c0,0-11.663-7.479-14.953-10.205c-3.29-2.726-4.265,0.759-2.835,1.97c0,0,14.732,11.041,15.598,11.504
					l-0.434,1.065c0,0-9.558-3.632-12.308-4.733c-2.75-1.101-1.215,1.575,1.093,2.811c2.307,1.236,15.721,10.975,22.756,11.903
					c3.659,0.483,11.229,5.832,14.806,10.522c0,0,31.183,54.8,51.206,54.8c20.023,0,20.351-67.29,20.351-67.29
					S221.036,280.784,211.189,274.876z"/>
				<g>
					<path style="fill:#E36B6B;" d="M140.513,301.377c-1.296,0.277-2.521,0.659-3.641,1.178c-1.109,0.533-2.101,1.236-2.775,2.176
						c-0.203,0.211-0.334,0.47-0.467,0.729c-0.147,0.252-0.283,0.509-0.356,0.799c-0.087,0.282-0.218,0.553-0.277,0.848
						c-0.041,0.3-0.096,0.599-0.156,0.901c-0.084,0.3-0.056,0.614-0.079,0.927l-0.055,0.951c0.027,0.638,0.07,1.283,0.052,1.958
						c-0.265-0.604-0.483-1.236-0.691-1.878c-0.09-0.661-0.276-1.331-0.249-2.022c-0.062-1.382,0.387-2.826,1.229-4
						c0.871-1.165,2.143-1.958,3.461-2.344C137.826,301.213,139.204,301.111,140.513,301.377z"/>
				</g>
				<g>
					<path style="fill:#E36B6B;" d="M143.685,318.881c0.512-0.871,1.037-1.663,1.445-2.481c0.431-0.799,0.708-1.628,0.687-2.356
						l-0.018-0.646l0.604-0.056c0.317-0.029,0.689-0.076,1.037-0.122c0.35-0.06,0.704-0.116,1.054-0.192
						c0.705-0.152,1.387-0.355,2.105-0.687c-0.394,0.696-1.071,1.211-1.78,1.578c-0.36,0.179-0.731,0.336-1.116,0.445
						c-0.388,0.121-0.76,0.21-1.194,0.257l0.585-0.701c0.069,0.605-0.054,1.185-0.248,1.699c-0.18,0.526-0.495,0.96-0.797,1.378
						C145.399,317.803,144.612,318.46,143.685,318.881z"/>
				</g>
				<path style="fill:#E36B6B;" d="M173.506,332.804c-2.481,9.887-7.878,15.375-11.449,18.067c-0.604-0.854-1.182-1.707-1.759-2.534
					l7.615-20.574L173.506,332.804z"/>
			</g>
			<path style="fill:#0071C2;" d="M311.649,445.976c4.74-7.583,8.262-15.623,9.107-23.5c3.24-30.199-5.841-45.845-5.841-45.845
				s-27.901,13.02-49.565,12.145c-21.664-0.875-31.183-9.519-31.183-9.519s-1.805,17.178-14.087,30.089
				c-9.787,10.289-25.66,29.318-31.709,36.63H311.649z"/>
			<g>
				<path style="fill:#005591;" d="M248.162,386.072l-1.983,9.02c-3.44-1.024-6.473-2.232-9.086-3.44l3.584-8.403
					c0.643,0.302,1.352,0.617,2.114,0.919C244.355,384.824,246.14,385.468,248.162,386.072z"/>
				<path style="fill:#005591;" d="M280.488,397.298c-8.534,1.247-16.15,1.129-22.793,0.249v-9.453
					c2.363,0.328,4.91,0.564,7.655,0.683c4.609,0.184,9.493-0.249,14.338-1.077L280.488,397.298z"/>
				<path style="fill:#005591;" d="M305.29,390.418c-3.138,1.274-6.197,2.364-9.164,3.283l-1.444-9.545v-0.013
					c3.125-0.932,6.053-1.917,8.652-2.849l0.368,1.694L305.29,390.418z"/>
			</g>
			<g>
				<g>
					<path style="fill:#FF8585;" d="M389.942,269.27c-2.501,3.473-11.915,13.661-11.915,13.661l-0.86-0.715
						c0,0,11.98-16.235,13.001-17.447c1.021-1.212,2.361-3.433,0.91-4.238c-1.45-0.806-3.152,1.214-3.152,1.214l-15.123,17.335
						l-0.731-0.665c0,0,11.814-16.424,12.691-18.665c0.877-2.241-1.538-2.169-2.016-1.713c-4.903,4.674-20.841,25.426-20.841,25.426
						s2.531-6.54,3.501-11.102c0.97-4.561-1.831-6.354-1.831-6.354c-0.555,2.301-6.32,15.584-9.062,19.28
						c-2.742,3.695-2.734,5.834-2.923,9.406c-0.044,0.823-0.22,3.008-0.631,5.232l-24.799,37.502c0,0-14.942-38.179-21.495-51.743
						c-6.553-13.564-16.354-14.762-16.354-14.762c-8.058,8.182,2.004,43.215,2.004,43.215s17.139,65.072,36.526,60.067
						c19.387-5.005,35.882-65.86,35.882-65.86c2.8-4.288,7.74-8.242,10.265-9.262c6.579-2.66,17.12-15.484,19.044-17.262
						c1.924-1.778,2.738-4.764,0.352-3.006c-2.386,1.758-10.729,7.679-10.729,7.679l-0.688-0.927
						c0.721-0.667,12.213-15.086,12.213-15.086C394.262,268.942,392.443,265.796,389.942,269.27z"/>
					<g>
						<path style="fill:#E36B6B;" d="M361.907,283.462c1.204-0.585,2.568-0.83,3.946-0.779c1.376,0.048,2.808,0.505,3.941,1.423
							c1.107,0.933,1.897,2.224,2.184,3.579c0.197,0.664,0.187,1.359,0.265,2.024c-0.042,0.676-0.093,1.344-0.198,1.997
							c-0.187-0.651-0.307-1.288-0.441-1.914l-0.292-0.91c-0.102-0.298-0.152-0.611-0.308-0.881
							c-0.134-0.278-0.262-0.555-0.377-0.836c-0.129-0.274-0.325-0.504-0.48-0.756c-0.144-0.263-0.337-0.482-0.544-0.689
							c-0.196-0.216-0.384-0.44-0.634-0.594c-0.887-0.749-2.024-1.187-3.234-1.429C364.519,283.471,363.234,283.406,361.907,283.462
							z"/>
					</g>
					<g>
						<path style="fill:#E36B6B;" d="M363.233,301.279c-1.006-0.18-1.933-0.623-2.765-1.244c-0.397-0.331-0.811-0.675-1.117-1.141
							c-0.317-0.451-0.581-0.983-0.665-1.587l0.742,0.532c-0.432,0.063-0.815,0.07-1.221,0.049c-0.401-0.01-0.8-0.071-1.193-0.154
							c-0.779-0.179-1.563-0.511-2.118-1.088c0.779,0.144,1.49,0.173,2.211,0.145c0.359-0.013,0.715-0.047,1.07-0.076
							c0.348-0.041,0.72-0.09,1.035-0.14l0.598-0.096l0.144,0.629c0.164,0.715,0.64,1.451,1.258,2.121
							C361.811,299.921,362.519,300.56,363.233,301.279z"/>
					</g>
				</g>
				<g>
					<path style="fill:#E36B6B;" d="M335.387,323.476c-2.558,4.766-5.446,9.311-8.416,13.802c-3.003,4.469-6.088,8.883-9.507,13.074
						c2.555-4.767,5.444-9.312,8.416-13.802C328.885,332.082,331.971,327.668,335.387,323.476z"/>
				</g>
			</g>
			<path style="fill:#FF3500;" d="M288.326,270.937c-51.535-7.221-77.138,3.939-77.138,3.939s4.335,17.069,2.003,29.542
				s-6.531,24.29,0,31.84c6.531,7.55,22.615,14.443,21.958,26.588c-0.656,12.145-0.985,16.412-0.985,16.412
				s24.618,27.901,80.748-2.626c0,0-20.351-46.611-25.603-98.802L288.326,270.937z"/>
			<path style="fill:#FF8585;" d="M221.85,271.761c-0.023,7.887,2.074,27.162,23.53,23.67c18.751-3.051,22.908-18.122,23.756-26.463
				C247.054,267.558,231.3,269.676,221.85,271.761z"/>
			<path style="fill:#FF8585;" d="M221.993,259.448l6.921,23.962c0,0,17.725,3.611,23.962-14.443l-9.804-27.901L221.993,259.448z"/>
			<path style="fill:#E36B6B;" d="M221.993,259.448l4.931,17.071c13.924-5.373,18.578-16.175,20.014-24.453l-3.865-11
				L221.993,259.448z"/>
			<path style="fill:#0053AB;" d="M225.303,155.723c0,0-72.542,2.298-41.687,107.664l45.298-10.504l-1.149-92.975L225.303,155.723z"
				/>
			<path style="fill:#FF8585;" d="M227.492,160.975c-12.255-0.16-36.763,21.883-40.265,63.023
				c-3.501,41.14,27.573,42.891,37.201,40.265c9.629-2.626,29.761-12.254,32.387-57.771
				C259.441,160.975,237.64,161.107,227.492,160.975z"/>
			<path style="fill:#005FC5;" d="M225.303,155.723c0,0,11.79,50.145,30.513,61.343
				C255.817,217.066,279.135,159.662,225.303,155.723z"/>
			<path style="fill:#FF8585;" d="M248.499,218.417c1.072-4.035,6.018-16.084,13.239-10.176s-1.88,34.309-10.962,29.541
				C245.776,235.158,247.248,223.129,248.499,218.417z"/>
			<path style="fill:#FF8F00;" d="M165.344,320.72c0,0-1.313,15.537-15.318,29.104l5.033,6.127c0,0,12.911-8.534,17.506-28.667
				L165.344,320.72z"/>
			<g>
				<path style="fill:#E36B6B;" d="M178.746,337.529c4.356,3.206,8.447,6.707,12.474,10.282c4,3.604,7.933,7.282,11.599,11.26
					c-4.358-3.203-8.449-6.705-12.474-10.282C186.347,345.182,182.414,341.504,178.746,337.529z"/>
			</g>
			<path style="fill:#005591;" d="M261.738,426.039c0,0-4.146,9.169-12.561,19.937h2.005c4.468-6.527,9.308-14.341,14.167-23.495
				c0,0-8.889-1.97-11.659-4.385C253.69,418.095,257.629,425.291,261.738,426.039z"/>
			<g>
				<path style="fill:#26A5FF;" d="M295.572,445.976h1.553c3.609-5.68,6.305-11.217,8.31-16.274
					c8.14-20.535,7.011-37.84,6.998-38.011l-1.313,0.092c0.013,0.171,1.116,17.213-6.932,37.486
					C302.136,434.452,299.347,440.145,295.572,445.976z"/>
			</g>
			<g>
				<path style="fill:#005591;" d="M307.894,425.468c-10.115-8.17-9.261-30.863-9.22-31.824l2.623,0.113
					c-0.01,0.222-0.839,22.33,8.247,29.668L307.894,425.468z"/>
			</g>
			<g>
				<path style="fill:#A82300;" d="M237.434,348.3c2.176,0.708,4.483,0.994,6.708,0.702c1.111-0.135,2.197-0.41,3.22-0.83
					c0.5-0.208,1.03-0.45,1.564-0.694c0.539-0.223,1.077-0.45,1.632-0.637c2.201-0.8,4.555-1.202,6.914-1.227
					c2.352-0.031,4.747,0.425,6.933,1.146c2.154,0.672,4.362,1.142,6.587,1.34c2.221,0.211,4.469,0.082,6.596-0.505
					c2.127-0.589,4.076-1.77,5.594-3.413c1.564-1.63,2.517-3.729,3.394-5.845c-0.595,2.205-1.437,4.409-2.906,6.265
					c-1.493,1.818-3.529,3.204-5.78,3.957c-2.251,0.782-4.66,0.924-6.996,0.781c-2.343-0.17-4.645-0.652-6.87-1.323
					c-4.253-1.501-8.852-1.524-13.156-0.218c-0.541,0.151-1.069,0.343-1.6,0.53c-0.52,0.206-1.043,0.413-1.613,0.617
					c-1.119,0.39-2.286,0.628-3.458,0.695C241.854,349.725,239.511,349.286,237.434,348.3z"/>
			</g>
			
				<path style="fill:none;stroke:#532001;stroke-width:1.0622;stroke-linecap:round;stroke-linejoin:round;stroke-miterlimit:10;" d="
				M209.699,196.644c0,0-8.686,18.6-1.902,37.201l7.003-3.283"/>
			
				<path style="fill:none;stroke:#532001;stroke-width:1.7069;stroke-linecap:round;stroke-linejoin:round;stroke-miterlimit:10;" d="
				M220.079,209.555c0,0,3.419-7.714,8.835-6.401c5.416,1.313,5.262,8.645,5.262,8.645"/>
			
				<path style="fill:none;stroke:#532001;stroke-width:1.7069;stroke-linecap:round;stroke-linejoin:round;stroke-miterlimit:10;" d="
				M202.444,210.154c0,0-2.506-5.653-6.475-4.691c-3.969,0.962-3.856,6.335-3.856,6.335"/>
			<path style="fill:#532001;" d="M234.536,196.107c-4.096-1.964-8.712-2.36-12.976-1.144c-0.37-2.075-0.741-4.149-1.111-6.224
				c5.722-0.566,11.4,0.959,15.974,4.262C235.794,194.036,235.165,195.071,234.536,196.107z"/>
			<path style="fill:#532001;" d="M197.91,196.644c2.665-1.278,5.668-1.536,8.442-0.744c0.241-1.35,0.482-2.7,0.723-4.049
				c-3.723-0.369-7.417,0.624-10.393,2.773C197.092,195.297,197.501,195.97,197.91,196.644z"/>
			<path style="fill:#FF697A;" d="M239.746,224.873c0,3.867-3.135,7.003-7.003,7.003c-3.867,0-7.003-3.135-7.003-7.003
				s3.135-7.003,7.003-7.003C236.611,217.87,239.746,221.006,239.746,224.873z"/>
			<path style="fill:#FF697A;" d="M199.596,224.873c0,2.336-1.894,4.23-4.23,4.23s-4.23-1.894-4.23-4.23
				c0-2.336,1.894-4.23,4.23-4.23S199.596,222.537,199.596,224.873z"/>
			
				<path style="fill:none;stroke:#532001;stroke-width:1.7069;stroke-linecap:round;stroke-linejoin:round;stroke-miterlimit:10;" d="
				M206.348,244.335c0,0,7.327,6.821,12.681,2.874c5.354-3.947,2.683-10.162,2.683-10.162"/>
			<g>
				
					<ellipse transform="matrix(0.2241 -0.9746 0.9746 0.2241 -121.7796 506.4568)" style="fill:#FFFFFF;" cx="257.181" cy="329.71" rx="7.473" ry="7.473"/>
				<path style="fill:#FFFFFF;" d="M219.749,323.705c0,4.136-3.348,7.471-7.471,7.471c-0.656,0-1.3-0.079-1.904-0.25
					c-1.182-4.228-0.656-9.178,0.368-14.521v-0.013c0.499-0.105,1.011-0.158,1.536-0.158
					C216.401,316.234,219.749,319.583,219.749,323.705z"/>
				
					<ellipse transform="matrix(0.2305 -0.9731 0.9731 0.2305 -150.6373 550.6207)" style="fill:#FFFFFF;" cx="272.822" cy="370.554" rx="7.473" ry="7.473"/>
				<path style="fill:#FFFFFF;" d="M306.104,381.069c-4.569,2.127-8.902,3.847-13.012,5.212c-1.195-1.326-1.93-3.072-1.93-4.989
					c0-4.123,3.348-7.471,7.484-7.471C302.69,373.822,305.999,377.052,306.104,381.069z"/>
				<path style="fill:#FFFFFF;" d="M244.906,373.822c0,4.123-3.348,7.471-7.471,7.471c-0.407,0-0.801-0.026-1.182-0.105
					c-1.405-1.155-2.088-1.93-2.088-1.93s0.25-3.322,0.762-12.46c0.775-0.289,1.628-0.447,2.508-0.447
					C241.558,366.351,244.906,369.686,244.906,373.822z"/>
				<path style="fill:#FFFFFF;" d="M293.998,308.212c-1.247,0.932-2.784,1.484-4.464,1.484c-4.123,0-7.471-3.348-7.471-7.471
					c0-4.136,3.348-7.471,7.471-7.471c0.709,0,1.405,0.092,2.048,0.289C292.305,299.52,293.119,303.919,293.998,308.212z"/>
				<path style="fill:#FFFFFF;" d="M280.291,272.578c0,4.123-3.335,7.471-7.471,7.471c-4.123,0-7.471-3.348-7.471-7.471
					c0-1.379,0.381-2.665,1.037-3.768c4.228,0.21,8.692,0.565,13.392,1.077C280.107,270.713,280.291,271.633,280.291,272.578z"/>
				<path style="fill:#FFFFFF;" d="M221.837,289.817c0,4.123-3.348,7.471-7.471,7.471c-0.171,0-0.341,0-0.499-0.026
					c0.105-5.239-0.499-10.583-1.169-14.732c0.538-0.131,1.09-0.197,1.667-0.197C218.489,282.333,221.837,285.681,221.837,289.817z"
					/>
				<path style="fill:#FFFFFF;" d="M305.973,352.604c-0.722,0.236-1.497,0.368-2.298,0.368c-4.136,0-7.471-3.348-7.471-7.484
					c0-3.374,2.232-6.224,5.304-7.143C303.018,343.518,304.529,348.297,305.973,352.604z"/>
			</g>
			<g>
				<path style="fill:#A82300;" d="M228.463,318.348c2.32-1.728,5.028-2.935,7.834-3.719c2.809-0.788,5.742-1.197,8.672-1.141
					c0.733-0.023,1.461,0.089,2.191,0.127c0.73,0.049,1.46,0.103,2.177,0.252l2.157,0.384c0.707,0.181,1.409,0.383,2.109,0.583
					c1.421,0.335,2.74,0.983,4.092,1.495c0.674,0.264,1.293,0.659,1.939,0.981c0.641,0.334,1.274,0.681,1.898,1.038
					c-1.384-0.435-2.694-1.014-4.066-1.418l-2.055-0.592c-0.344-0.092-0.678-0.213-1.023-0.294l-1.043-0.218l-2.076-0.447
					l-2.102-0.281c-0.697-0.118-1.4-0.172-2.105-0.204c-0.704-0.027-1.406-0.125-2.111-0.095l-2.114,0.012l-2.108,0.163
					c-1.403,0.134-2.801,0.353-4.185,0.645C233.78,316.217,231.042,317.059,228.463,318.348z"/>
			</g>
			<path style="fill:#E36B6B;" d="M260.724,215.074c-0.648-0.328-1.442-0.486-2.21-0.348c-1.57,0.273-2.702,1.393-3.563,2.485
				c-0.84,1.144-1.48,2.384-1.95,3.675c-0.475,1.288-0.823,2.618-0.946,3.987l1.875-3.565c0.638-1.157,1.293-2.293,2.066-3.304
				c0.181-0.238,0.371-0.471,0.568-0.693c0.077,0.269,0.156,0.538,0.221,0.806c0.384,1.716,0.619,3.449,0.552,5.163
				c-0.053,1.717-0.503,3.379-1.246,4.919c-0.711,1.586-1.955,2.852-3.216,4.168c1.549-0.894,3.153-1.998,4.105-3.659
				c1.017-1.59,1.589-3.482,1.668-5.372c0.048-1.891-0.273-3.758-0.883-5.501c-0.144-0.417-0.328-0.817-0.511-1.217
				c0.453-0.396,0.946-0.713,1.488-0.893c0.544-0.173,1.143-0.194,1.752-0.048c0.615,0.142,1.2,0.453,1.811,0.771
				C261.885,215.91,261.37,215.423,260.724,215.074z"/>
			<g>
				<path style="fill:#A82300;" d="M218.738,282.181c0.932,2.761,1.948,5.507,3.428,7.983c1.431,2.489,3.325,4.716,5.701,6.255
					c2.369,1.544,5.133,2.411,7.959,2.688c0.698,0.123,1.42,0.087,2.128,0.143l1.067,0.046l1.072-0.05
					c0.714-0.044,1.43-0.042,2.142-0.122l2.136-0.275c5.684-0.773,11.273-2.61,15.969-5.919c2.357-1.632,4.45-3.646,6.233-5.915
					c1.829-2.24,3.324-4.746,4.684-7.326c-1.09,2.707-2.484,5.301-4.171,7.715c-1.713,2.393-3.784,4.552-6.15,6.342
					c-2.353,1.812-5.016,3.198-7.78,4.266c-2.781,1.042-5.679,1.704-8.601,2.137l-2.202,0.268c-0.736,0.077-1.482,0.072-2.222,0.111
					l-1.112,0.043l-1.116-0.055c-0.743-0.062-1.491-0.03-2.229-0.177c-2.953-0.365-5.924-1.309-8.371-3.086
					c-2.463-1.745-4.349-4.164-5.699-6.78C220.282,287.829,219.388,285.023,218.738,282.181z"/>
			</g>
		</g>
		<g>
			<rect y="428.801" style="fill:#FFFFFF;" width="500" height="71.199"/>
			
				<line style="fill:#FFFFFF;stroke:#CCCCCC;stroke-width:2.0444;stroke-miterlimit:10;" x1="0" y1="428.801" x2="500" y2="428.801"/>
		</g>
		<g>
			<g>
				<ellipse style="fill:#EE3B4E;" cx="48.801" cy="156.344" rx="5.384" ry="5.939"/>
				
					<text transform="matrix(0.9066 0 0 1 56.8872 158.9179)" style="fill:#4F5B8F; font-family:'SourceSansPro-BlackIt'; font-size:10.2134px;">LIVE</text>
			</g>
			<g>
				<g>
					<g>
						<polygon style="fill:#9490B5;" points="441.433,380.628 441.433,376.268 445.321,376.268 445.321,372.987 438.152,372.987 
							438.152,380.628 						"/>
						<polygon style="fill:#9490B5;" points="448.602,376.268 452.49,376.268 452.49,380.628 455.771,380.628 455.771,372.987 
							448.602,372.987 						"/>
						<polygon style="fill:#9490B5;" points="452.49,383.908 452.49,387.325 448.602,387.325 448.602,390.606 455.771,390.606 
							455.771,383.908 						"/>
						<polygon style="fill:#9490B5;" points="445.321,387.325 441.433,387.325 441.433,383.908 438.152,383.908 438.152,390.606 
							445.321,390.606 						"/>
					</g>
					<g>
						<path style="fill:#9490B5;" d="M425.774,388.897h-23.279v-15.156h23.279V388.897z M405.776,385.616h16.717v-8.594h-16.717
							V385.616z"/>
					</g>
					<polygon style="fill:#9490B5;" points="394.514,375.382 374.516,375.382 374.516,387.257 376.78,387.257 379.044,390.606 
						380.836,387.257 394.514,387.257 					"/>
				</g>
				<g>
					<polygon style="fill:#9490B5;" points="41.579,375.17 41.579,388.467 48.228,381.818 					"/>
					<g>
						<rect x="56.293" y="375.17" style="fill:#9490B5;" width="2.83" height="13.297"/>
						<rect x="60.821" y="375.17" style="fill:#9490B5;" width="2.83" height="13.297"/>
					</g>
					<g>
						<polygon style="fill:#9490B5;" points="74.357,378.401 70.207,378.401 70.207,386.702 74.357,386.702 81.526,389.933 
							81.526,375.17 						"/>
						<g>
							<path style="fill:#9490B5;" d="M85.07,382.551c0,1.357-0.639,2.556-1.617,3.352l0.595,0.969
								c1.301-1.001,2.154-2.557,2.154-4.321c0-1.828-0.91-3.44-2.292-4.434l-0.566,0.993
								C84.385,379.903,85.07,381.144,85.07,382.551z"/>
							<path style="fill:#9490B5;" d="M89.527,382.551c0-3.065-1.577-5.765-3.961-7.34l-0.56,0.983
								c2.043,1.378,3.389,3.713,3.389,6.357c0,2.555-1.261,4.815-3.188,6.209l0.594,0.967
								C88.051,388.133,89.527,385.513,89.527,382.551z"/>
						</g>
					</g>
				</g>
			</g>
			<g>
				<g>
					<path style="fill:#A4AAD6;" d="M448.757,349.413v-4.984c0-6.832-5.538-12.37-12.37-12.37h-51.891
						c-6.832,0-12.371,5.538-12.371,12.37v0c0,6.832,5.538,12.37,12.371,12.37h45.613h18.649h7.387L448.757,349.413z"/>
					<g>
						
							<line style="fill:none;stroke:#FFFFFF;stroke-width:1.8841;stroke-linecap:round;stroke-linejoin:round;stroke-miterlimit:10;" x1="428.551" y1="337.89" x2="440.17" y2="337.89"/>
						
							<line style="fill:none;stroke:#FFFFFF;stroke-width:1.8841;stroke-linecap:round;stroke-linejoin:round;stroke-miterlimit:10;" x1="381.606" y1="337.89" x2="420.543" y2="337.89"/>
						
							<line style="fill:none;stroke:#FFFFFF;stroke-width:1.8841;stroke-linecap:round;stroke-linejoin:round;stroke-miterlimit:10;" x1="426.032" y1="344.429" x2="436.401" y2="344.429"/>
						
							<line style="fill:none;stroke:#FFFFFF;stroke-width:1.8841;stroke-linecap:round;stroke-linejoin:round;stroke-miterlimit:10;" x1="395.736" y1="344.429" x2="422.271" y2="344.429"/>
						
							<line style="fill:none;stroke:#FFFFFF;stroke-width:1.8841;stroke-linecap:round;stroke-linejoin:round;stroke-miterlimit:10;" x1="381.606" y1="344.429" x2="391.796" y2="344.429"/>
						
							<line style="fill:none;stroke:#FFFFFF;stroke-width:1.8841;stroke-linecap:round;stroke-linejoin:round;stroke-miterlimit:10;" x1="423.841" y1="350.967" x2="440.17" y2="350.967"/>
						
							<line style="fill:none;stroke:#FFFFFF;stroke-width:1.8841;stroke-linecap:round;stroke-linejoin:round;stroke-miterlimit:10;" x1="381.606" y1="350.967" x2="417.874" y2="350.967"/>
					</g>
				</g>
				<g>
					<path style="fill:#D5D2E4;" d="M379.512,314.194v-4.984c0-6.832,5.539-12.37,12.371-12.37h51.891
						c6.832,0,12.371,5.538,12.371,12.37l0,0c0,6.832-5.538,12.371-12.371,12.371H398.16h-18.649h-7.387L379.512,314.194z"/>
					<g>
						
							<line style="fill:none;stroke:#FFFFFF;stroke-width:1.8841;stroke-linecap:round;stroke-linejoin:round;stroke-miterlimit:10;" x1="435.538" y1="303.503" x2="447.157" y2="303.503"/>
						
							<line style="fill:none;stroke:#FFFFFF;stroke-width:1.8841;stroke-linecap:round;stroke-linejoin:round;stroke-miterlimit:10;" x1="388.592" y1="303.503" x2="427.53" y2="303.503"/>
						
							<line style="fill:none;stroke:#FFFFFF;stroke-width:1.8841;stroke-linecap:round;stroke-linejoin:round;stroke-miterlimit:10;" x1="433.019" y1="310.041" x2="443.388" y2="310.041"/>
						
							<line style="fill:none;stroke:#FFFFFF;stroke-width:1.8841;stroke-linecap:round;stroke-linejoin:round;stroke-miterlimit:10;" x1="402.723" y1="310.041" x2="429.258" y2="310.041"/>
						
							<line style="fill:none;stroke:#FFFFFF;stroke-width:1.8841;stroke-linecap:round;stroke-linejoin:round;stroke-miterlimit:10;" x1="388.592" y1="310.041" x2="398.783" y2="310.041"/>
						
							<line style="fill:none;stroke:#FFFFFF;stroke-width:1.8841;stroke-linecap:round;stroke-linejoin:round;stroke-miterlimit:10;" x1="430.828" y1="316.579" x2="447.157" y2="316.579"/>
						
							<line style="fill:none;stroke:#FFFFFF;stroke-width:1.8841;stroke-linecap:round;stroke-linejoin:round;stroke-miterlimit:10;" x1="388.592" y1="316.579" x2="424.861" y2="316.579"/>
					</g>
				</g>
				<g>
					<path style="opacity:0.45;fill:#D5D2E4;" d="M448.757,278.975v-4.984c0-6.832-5.538-12.371-12.37-12.371h-51.891
						c-6.832,0-12.371,5.539-12.371,12.371v0c0,6.832,5.538,12.37,12.371,12.37h45.613h18.649h7.387L448.757,278.975z"/>
					<g>
						
							<line style="fill:none;stroke:#FFFFFF;stroke-width:1.8841;stroke-linecap:round;stroke-linejoin:round;stroke-miterlimit:10;" x1="428.551" y1="267.452" x2="440.17" y2="267.452"/>
						
							<line style="fill:none;stroke:#FFFFFF;stroke-width:1.8841;stroke-linecap:round;stroke-linejoin:round;stroke-miterlimit:10;" x1="381.606" y1="267.452" x2="420.543" y2="267.452"/>
						
							<line style="fill:none;stroke:#FFFFFF;stroke-width:1.8841;stroke-linecap:round;stroke-linejoin:round;stroke-miterlimit:10;" x1="426.032" y1="273.991" x2="436.401" y2="273.991"/>
						
							<line style="fill:none;stroke:#FFFFFF;stroke-width:1.8841;stroke-linecap:round;stroke-linejoin:round;stroke-miterlimit:10;" x1="395.736" y1="273.991" x2="422.271" y2="273.991"/>
						
							<line style="fill:none;stroke:#FFFFFF;stroke-width:1.8841;stroke-linecap:round;stroke-linejoin:round;stroke-miterlimit:10;" x1="381.606" y1="273.991" x2="391.796" y2="273.991"/>
						
							<line style="fill:none;stroke:#FFFFFF;stroke-width:1.8841;stroke-linecap:round;stroke-linejoin:round;stroke-miterlimit:10;" x1="423.841" y1="280.529" x2="440.17" y2="280.529"/>
						
							<line style="fill:none;stroke:#FFFFFF;stroke-width:1.8841;stroke-linecap:round;stroke-linejoin:round;stroke-miterlimit:10;" x1="381.606" y1="280.529" x2="417.874" y2="280.529"/>
					</g>
				</g>
			</g>
			<g>
				<g>
					<path style="fill:#A9ACD9;" d="M78.537,346.725c-0.813-2.428-3.439-3.738-5.867-2.927c-1.729,0.579-2.886,2.078-3.118,3.77
						c-1.203-1.212-3.03-1.714-4.759-1.136c-2.428,0.812-3.738,3.438-2.926,5.866c0.071,0.212,0.16,0.411,0.257,0.604l-0.003,0.003
						c0,0,0.038,0.085,0.124,0.234c0.008,0.012,0.014,0.026,0.022,0.038c0.622,1.049,3.38,4.875,11.211,6.127
						c6.399-6.643,5.225-11.944,5.225-11.944l-0.007,0.001C78.655,347.149,78.607,346.937,78.537,346.725z"/>
				</g>
				<g style="opacity:0.44;">
					<path style="fill:#A9ACD9;" d="M65.052,307.604c1.445-2.114,0.905-4.998-1.207-6.444c-1.505-1.029-3.399-1.047-4.889-0.211
						c0.241-1.69-0.462-3.451-1.967-4.48c-2.112-1.446-4.997-0.905-6.444,1.208c-0.126,0.184-0.231,0.376-0.327,0.57l-0.004-0.001
						c0,0-0.045,0.082-0.111,0.24c-0.005,0.014-0.012,0.027-0.017,0.041c-0.461,1.129-1.847,5.637,1.882,12.637
						c9.158,1.092,12.677-3.043,12.677-3.043l-0.006-0.005C64.785,307.954,64.925,307.788,65.052,307.604z"/>
				</g>
				<g style="opacity:0.44;">
					<path style="fill:#A9ACD9;" d="M85.367,322.859c-0.388-1.503-1.919-2.407-3.422-2.02c-1.07,0.276-1.833,1.133-2.047,2.146
						c-0.675-0.784-1.759-1.166-2.829-0.89c-1.502,0.387-2.407,1.919-2.02,3.422c0.034,0.131,0.079,0.255,0.13,0.376l-0.002,0.001
						c0,0,0.019,0.053,0.065,0.146c0.004,0.008,0.008,0.016,0.012,0.024c0.331,0.661,1.835,3.091,6.516,4.183
						c4.152-3.743,3.669-6.998,3.669-6.998l-0.004,0.001C85.42,323.12,85.4,322.99,85.367,322.859z"/>
				</g>
				<g>
					<path style="fill:#E3E4FF;" d="M68.844,332.166c-1.504,4.431-6.316,6.803-10.747,5.299c-4.431-1.504-6.803-6.316-5.299-10.747
						c1.505-4.431,6.316-6.803,10.747-5.299C67.976,322.924,70.348,327.736,68.844,332.166z"/>
					<path style="fill:#A9ACD9;" d="M66.424,328.837c-0.182,0.901-0.831,1.53-1.45,1.405c-0.619-0.125-0.973-0.957-0.791-1.858
						c0.182-0.901,0.831-1.53,1.45-1.405C66.252,327.104,66.606,327.936,66.424,328.837z"/>
					<path style="fill:#A9ACD9;" d="M56.513,325.511c-0.399,0.828-0.26,1.722,0.309,1.995c0.569,0.274,1.353-0.176,1.751-1.004
						c0.398-0.828,0.26-1.722-0.309-1.995C57.696,324.233,56.912,324.683,56.513,325.511z"/>
					<path style="fill:#A9ACD9;" d="M62.092,333.229c-0.564,1.661-2.048,2.66-3.314,2.23c-1.266-0.43-1.835-2.125-1.271-3.787
						c0.564-1.661,2.048-2.66,3.314-2.23C62.087,329.872,62.656,331.568,62.092,333.229z"/>
					<g>
						<path style="fill:#A9ACD9;" d="M67.377,326.008c-0.157-0.053-0.266-0.206-0.256-0.38c0.021-0.385-0.273-0.77-0.7-0.915
							c-0.407-0.138-0.851-0.032-1.082,0.258c-0.13,0.164-0.368,0.19-0.532,0.061c-0.164-0.13-0.191-0.368-0.061-0.531
							c0.432-0.544,1.202-0.746,1.917-0.503c0.755,0.256,1.253,0.945,1.212,1.674c-0.012,0.209-0.19,0.368-0.399,0.356
							C67.443,326.025,67.409,326.019,67.377,326.008z"/>
					</g>
					<g>
						<path style="fill:#A9ACD9;" d="M57.448,322.636c-0.032-0.011-0.063-0.026-0.092-0.046c-0.173-0.118-0.217-0.353-0.099-0.525
							c0.412-0.604,1.226-0.846,1.981-0.59c0.715,0.243,1.203,0.872,1.215,1.566c0.004,0.209-0.163,0.381-0.372,0.385
							c-0.21,0.004-0.381-0.163-0.384-0.372c-0.007-0.37-0.295-0.725-0.701-0.863c-0.427-0.145-0.896-0.019-1.113,0.3
							C57.784,322.635,57.604,322.69,57.448,322.636z"/>
					</g>
				</g>
				<g style="opacity:0.57;">
					<g>
						<path style="fill:#E3E4FF;" d="M85.764,304.302c1.21,3.853-0.933,7.958-4.786,9.168c-3.853,1.21-7.958-0.933-9.168-4.786
							c-1.21-3.854,0.933-7.958,4.786-9.168C80.45,298.305,84.554,300.448,85.764,304.302z"/>
						<path style="fill:#A9ACD9;" d="M83.351,305.333c0.215,0.685,0.265,1.384,0.171,2.052c-0.24,1.745-1.456,3.279-3.248,3.842
							c-1.792,0.563-3.666-0.001-4.861-1.296c-0.459-0.494-0.818-1.096-1.033-1.781L83.351,305.333z"/>
						<path style="fill:#7E98C1;" d="M83.521,307.385c-0.24,1.745-1.456,3.279-3.248,3.842c-1.792,0.563-3.666-0.001-4.861-1.296
							c1.09-0.906,2.369-1.617,3.805-2.068C80.653,307.412,82.109,307.264,83.521,307.385z"/>
						<g>
							<path style="fill:#A9ACD9;" d="M82.652,303.979c-0.037,0.011-0.075,0.017-0.116,0.014l-2.228-0.122
								c-0.13-0.007-0.243-0.09-0.288-0.212c-0.045-0.122-0.014-0.259,0.079-0.349l1.681-1.623c0.13-0.125,0.336-0.122,0.462,0.008
								c0.125,0.13,0.122,0.336-0.008,0.462l-1.142,1.103l1.48,0.081c0.18,0.01,0.318,0.164,0.308,0.344
								C82.872,303.825,82.778,303.939,82.652,303.979z"/>
						</g>
						<g>
							<path style="fill:#A9ACD9;" d="M74.179,306.639c-0.126,0.04-0.269,0-0.355-0.111c-0.111-0.142-0.086-0.347,0.056-0.458
								l1.169-0.913l-1.567-0.252c-0.178-0.029-0.299-0.196-0.271-0.374c0.028-0.178,0.196-0.3,0.374-0.271l2.306,0.371
								c0.128,0.021,0.232,0.115,0.264,0.241c0.033,0.126-0.013,0.259-0.115,0.339l-1.759,1.374
								C74.251,306.61,74.216,306.628,74.179,306.639z"/>
						</g>
					</g>
				</g>
			</g>
			<g>
				<g>
					
						<line style="fill:none;stroke:#4F5B8F;stroke-width:3.2818;stroke-miterlimit:10;" x1="29.833" y1="366.636" x2="470.167" y2="366.636"/>
					
						<line style="fill:none;stroke:#EE3B4E;stroke-width:3.2818;stroke-miterlimit:10;" x1="29.833" y1="366.636" x2="148.112" y2="366.636"/>
					<circle style="fill:#4F5B8F;" cx="149.9" cy="366.327" r="6.226"/>
				</g>
				
					<rect x="29.833" y="138.795" style="fill:none;stroke:#4F5B8F;stroke-width:3.2818;stroke-miterlimit:10;" width="440.333" height="258.66"/>
			</g>
		</g>
	</g>
</g>
</svg>
